<svg width="396" height="246.54002317074676" viewBox="0 0 350 217.90153563071053">
                    <defs id="SvgjsDefs4269"></defs>
                    <g id="SvgjsG4270" featurekey="rDwwlG-0"
                        transform="matrix(1.74999783039362,0,0,1.74999783039362,87.49966621440308,-17.49775028507674)"
                        fill="#4ecca3">
                        <path xmlns="http://www.w3.org/2000/svg"
                            d="M87.732,12.266c-5.778-5.782-21.23-0.137-37.731,12.747C33.495,12.129,18.043,6.487,12.268,12.266  C6.485,18.048,12.131,33.497,25.01,50C12.134,66.504,6.485,81.956,12.268,87.734c5.778,5.781,21.234,0.134,37.734-12.747  c16.5,12.881,31.953,18.528,37.731,12.747C93.516,81.952,87.867,66.5,74.986,50C87.87,33.497,93.516,18.045,87.732,12.266z   M81.215,16.662c1.222,0,1.739,0.254,1.804,0.319c0.336,0.335,1.205,4.118-2.973,12.821c-2.266,4.721-5.473,9.784-9.379,14.912  c-2.303-2.664-4.776-5.327-7.414-7.964c-2.634-2.63-5.298-5.104-7.957-7.406C66.277,20.992,75.927,16.662,81.215,16.662z   M66.404,49.998c-2.442,2.867-5.06,5.733-7.869,8.542c-2.865,2.869-5.724,5.479-8.531,7.863c-2.868-2.438-5.733-5.056-8.54-7.863  c-2.869-2.867-5.482-5.727-7.866-8.532c2.438-2.872,5.053-5.733,7.859-8.541c2.872-2.868,5.73-5.485,8.537-7.869  c2.872,2.442,5.738,5.06,8.543,7.866C61.407,44.333,64.021,47.188,66.404,49.998z M16.663,18.784c0-1.217,0.254-1.738,0.318-1.803  c0.332-0.332,4.116-1.205,12.821,2.976c4.721,2.266,9.78,5.473,14.912,9.376c-2.664,2.305-5.333,4.779-7.97,7.416  c-2.631,2.634-5.105,5.298-7.403,7.958C20.993,33.721,16.663,24.071,16.663,18.784z M18.785,83.339  c-1.221,0-1.741-0.257-1.804-0.318c-0.335-0.336-1.205-4.119,2.976-12.822c2.266-4.72,5.47-9.783,9.376-14.911  c2.305,2.663,4.779,5.33,7.416,7.967c2.631,2.635,5.294,5.105,7.958,7.407C33.722,79.009,24.072,83.339,18.785,83.339z   M83.338,81.216c0,1.219-0.257,1.739-0.319,1.801c-0.335,0.336-4.118,1.208-12.821-2.973c-4.717-2.266-9.78-5.473-14.908-9.379  c2.66-2.303,5.327-4.776,7.96-7.411c2.635-2.634,5.108-5.297,7.411-7.96C79.008,66.279,83.338,75.925,83.338,81.216z">
                        </path>
                    </g>
                    <g id="SvgjsG4271" featurekey="4AZ1rv-0"
                        transform="matrix(3.0125666989209643,0,0,3.0125666989209643,-3.133069251957503,143.9128948045846)"
                        fill="#4ecca3">
                        <path
                            d="M1.04 24.56 l0 -13.9 l2.9 0 l0 0.88 c0.58 -0.76 1.42 -1.16 2.64 -1.16 c3.06 0 4.02 2.52 4.02 4.82 c0 2.86 -1.5 5.08 -4.48 5.08 c-0.96 0 -1.48 -0.3 -1.96 -0.68 l0 4.96 l-3.12 0 z M5.76 17.96 c0.64 0 1.6 -0.26 1.6 -2.68 c0 -1.92 -0.6 -2.58 -1.56 -2.58 c-1.06 0 -1.64 0.8 -1.64 2.7 c0 1.7 0.46 2.56 1.6 2.56 z M11.600000000000001 13 l0 -2.34 l1.18 0 l0.18 -2.56 l2.9 0 l0 2.56 l2.56 0 l0 2.34 l-2.56 0 l0 3.96 c0 0.46 0.14 0.74 0.54 0.74 c0.5 0 0.6 -0.56 0.64 -1.12 l2.28 0.8 c-0.4 1.58 -1.02 2.82 -3.3 2.82 c-2.48 0 -3.28 -1.58 -3.28 -3.24 l0 -3.96 l-1.14 0 z M19.7 13 l0 -2.34 l1.2 0 l0 -0.96 c0 -2.68 1.46 -4.36 4.3 -4.36 c2.26 0 3.06 1.06 3.06 1.06 l-1.9 2.18 c-0.16 -0.44 -0.58 -0.7 -1.14 -0.7 c-0.92 0 -1.2 0.74 -1.2 2.2 l0 0.58 l2.18 0 l0 2.34 l-2.18 0 l0 7 l-3.12 0 l0 -7 l-1.2 0 z M27.38 20 l0 -9.34 l2.9 0 l0 1.6 c0.44 -1 1.22 -1.88 2.48 -1.88 c1.48 0 1.94 0.98 1.94 0.98 l-1.86 2.68 s-0.24 -0.66 -0.92 -0.66 c-0.72 0 -1.1 0.94 -1.42 1.92 l0 4.7 l-3.12 0 z M44.18 20.1 c-2.14 0.34 -2.98 -0.52 -3.24 -1.22 c-0.48 0.68 -1.2 1.4 -2.66 1.4 c-1.7 0 -3.16 -0.96 -3.16 -2.74 c0 -2.16 2.14 -3.14 5.4 -3.16 l0 -0.28 c0 -1.06 -0.26 -1.44 -1.02 -1.44 c-0.72 0 -1.06 0.34 -0.96 1.24 l-3.1 -0.58 c-0.2 -1.62 1.24 -2.94 4.28 -2.94 c2.86 0 3.92 1.18 3.92 3.76 l0 2.2 c0 1.02 0.04 1.54 1.1 1.3 z M40.519999999999996 16.88 l0 -0.74 c-1.22 0.02 -2.26 0.24 -2.26 1.16 c0 0.52 0.34 0.76 0.86 0.76 c0.6 0 1.32 -0.32 1.4 -1.18 z M57.72 20 l0 -5.34 c0 -1.1 -0.26 -1.64 -0.9 -1.64 c-1.08 0 -1.64 1.56 -1.82 2.26 l0 4.72 l-3.12 0 l0 -5.34 c0 -1.08 -0.26 -1.64 -0.9 -1.64 c-1.12 0 -1.68 1.7 -1.84 2.32 l0 4.66 l-3.12 0 l0 -9.34 l2.9 0 l0 1.48 c0.26 -0.56 1.04 -1.76 3.06 -1.76 c1.2 0 2.34 0.46 2.74 1.82 c0.22 -0.5 0.98 -1.82 3.14 -1.82 c1.38 0 2.98 0.56 2.98 3.48 l0 6.14 l-3.12 0 z M71.6 16.04 l-5.92 0 c0.08 1.34 0.46 1.92 1.76 1.92 c0.8 0 1.28 -0.22 1.42 -0.94 l2.74 0.48 c-0.52 1.74 -1.76 2.78 -4.26 2.78 c-3.12 0 -4.92 -1.62 -4.92 -4.84 c0 -2.6 1.16 -5.06 4.78 -5.06 c2.94 0 4.4 1.62 4.4 4.64 l0 1.02 z M67.08 12.6 c-0.76 0 -1.2 0.36 -1.36 1.54 l2.6 0 l0 -0.02 c0 -1.1 -0.42 -1.52 -1.24 -1.52 z M75.53999999999999 20 l-3.28 -9.34 l3.24 0 l1.28 4.04 c0.16 0.54 0.26 1.1 0.3 1.46 c0.08 -0.4 0.18 -0.94 0.34 -1.46 l1.2 -4.04 l2.46 0 l1.2 4.04 c0.14 0.5 0.24 1.04 0.32 1.44 c0.06 -0.4 0.18 -0.9 0.34 -1.4 l1.32 -4.08 l3.22 0 l-3.48 9.34 l-2.8 0 l-1.12 -3.6 c-0.08 -0.24 -0.22 -0.74 -0.34 -1.28 c-0.14 0.56 -0.26 1.06 -0.34 1.3 l-1.06 3.58 l-2.8 0 z M92.95999999999998 20.28 c-3.78 0 -4.92 -2.34 -4.92 -5.02 c0 -2.62 1.08 -4.88 4.86 -4.88 c3.86 0 4.88 2.34 4.88 4.92 c0 2.74 -1.14 4.98 -4.82 4.98 z M92.91999999999999 17.96 c1.36 0 1.62 -1.26 1.62 -2.62 s-0.26 -2.64 -1.64 -2.64 c-1.36 0 -1.62 1.28 -1.62 2.6 c0 1.34 0.26 2.66 1.64 2.66 z M99.43999999999998 20 l0 -9.34 l2.9 0 l0 1.6 c0.44 -1 1.22 -1.88 2.48 -1.88 c1.48 0 1.94 0.98 1.94 0.98 l-1.86 2.68 s-0.24 -0.66 -0.92 -0.66 c-0.72 0 -1.1 0.94 -1.42 1.92 l0 4.7 l-3.12 0 z M113.47999999999998 20 l-2.48 -3.84 l-0.2 0 l0 3.84 l-3.12 0 l0 -14.36 l3.12 0 l0 8.16 l0.28 0 l2.22 -3.14 l3.92 0 l-3.38 4.42 l3.38 4.92 l-3.74 0 z">
                        </path>
                    </g>
                </svg>